<svg style="vector-effect: non-scaling-stroke;" xmlns="http://www.w3.org/2000/svg" xmlns:svg="http://www.w3.org/2000/svg" height="360" width="540" stroke="null"><path stroke="#808080" stroke-width="8" fill="none" id="da39a3ee5e6b4b0d3255bfef95601890afd80709-10a34637ad661d98ba3344717656fcc76209c2f8" d="M60,60 C120,60 60,60 120,60"/><path stroke="#808080" stroke-width="8" fill="none" id="10a34637ad661d98ba3344717656fcc76209c2f8-6110212c651287fa93aae5142e60b50edde00970" d="M120,60 C180,60 120,60 180,60"/><path d="M300,120 C480,90 300,90 480,60" stroke="#bfdeff" stroke-dasharray="5, 5" stroke-width="8" id="97ba1cea6b4f9b318de806114e76eb1b15305608-d6c6686a6dad872af5a056d85c03d0b11b430cc3" fill="none"/><path d="M360,120 C480,90 360,90 480,60" stroke="#bfdeff" stroke-dasharray="5, 5" stroke-width="8" id="b7550c4170f74e8f673e146bd4e40856834e1b61-d6c6686a6dad872af5a056d85c03d0b11b430cc3" fill="none"/><path d="M420,120 C480,90 420,90 480,60" stroke="#bfdeff" stroke-dasharray="5, 5" stroke-width="8" id="0e87b424d10fbe54605d7b949ece42a447257046-d6c6686a6dad872af5a056d85c03d0b11b430cc3" fill="none"/><path stroke="#808080" stroke-width="8" fill="none" id="6110212c651287fa93aae5142e60b50edde00970-d6c6686a6dad872af5a056d85c03d0b11b430cc3" d="M180,60 C480,60 180,60 480,60"/><path d="M240,240 C300,180 240,180 300,120" stroke="#ffedbf" stroke-dasharray="5, 5" stroke-width="8" id="ee7fbf1c52742cf4f30d00b0e9e477dde72c7e51-97ba1cea6b4f9b318de806114e76eb1b15305608" fill="none"/><path d="M240,180 C300,150 240,150 300,120" stroke="#bfdeff" stroke-dasharray="5, 5" stroke-width="8" id="3c7435cfd4e31b9be3991041c9a4f8292b752e5b-97ba1cea6b4f9b318de806114e76eb1b15305608" fill="none"/><path stroke="#dfdfdf" stroke-width="8" fill="none" id="6110212c651287fa93aae5142e60b50edde00970-97ba1cea6b4f9b318de806114e76eb1b15305608" d="M180,60 C300,90 180,90 300,120"/><path d="M300,240 C360,180 300,180 360,120" stroke="#ffedbf" stroke-dasharray="5, 5" stroke-width="8" id="568e0c780c4424b9b3ed4d52d450384ab2dda094-b7550c4170f74e8f673e146bd4e40856834e1b61" fill="none"/><path stroke="#bfdeff" stroke-width="8" fill="none" id="97ba1cea6b4f9b318de806114e76eb1b15305608-b7550c4170f74e8f673e146bd4e40856834e1b61" d="M300,120 C360,120 300,120 360,120"/><path d="M300,180 C420,150 300,150 420,120" stroke="#bfdeff" stroke-dasharray="5, 5" stroke-width="8" id="ecc1978dca2e31d10751ede8d8753f1cbded832e-0e87b424d10fbe54605d7b949ece42a447257046" fill="none"/><path stroke="#bfdeff" stroke-width="8" fill="none" id="b7550c4170f74e8f673e146bd4e40856834e1b61-0e87b424d10fbe54605d7b949ece42a447257046" d="M360,120 C420,120 360,120 420,120"/><path d="M180,300 C240,240 180,240 240,180" stroke="#ffedbf" stroke-dasharray="5, 5" stroke-width="8" id="3e6c06b1a28a035e21aa0a736ef80afadc43122c-3c7435cfd4e31b9be3991041c9a4f8292b752e5b" fill="none"/><path stroke="#dfdfdf" stroke-width="8" fill="none" id="10a34637ad661d98ba3344717656fcc76209c2f8-3c7435cfd4e31b9be3991041c9a4f8292b752e5b" d="M120,60 C240,120 120,120 240,180"/><path stroke="#bfdeff" stroke-width="8" fill="none" id="3c7435cfd4e31b9be3991041c9a4f8292b752e5b-ecc1978dca2e31d10751ede8d8753f1cbded832e" d="M240,180 C300,180 240,180 300,180"/><path d="M180,300 C240,270 180,270 240,240" stroke="#ffedbf" stroke-dasharray="5, 5" stroke-width="8" id="3e6c06b1a28a035e21aa0a736ef80afadc43122c-ee7fbf1c52742cf4f30d00b0e9e477dde72c7e51" fill="none"/><path stroke="#dfdfdf" stroke-width="8" fill="none" id="6110212c651287fa93aae5142e60b50edde00970-ee7fbf1c52742cf4f30d00b0e9e477dde72c7e51" d="M180,60 C240,150 180,150 240,240"/><path d="M240,300 C300,270 240,270 300,240" stroke="#ffedbf" stroke-dasharray="5, 5" stroke-width="8" id="63027d7630360e4203c0e3f970ec2ffcfe5f8f1b-568e0c780c4424b9b3ed4d52d450384ab2dda094" fill="none"/><path stroke="#ffedbf" stroke-width="8" fill="none" id="ee7fbf1c52742cf4f30d00b0e9e477dde72c7e51-568e0c780c4424b9b3ed4d52d450384ab2dda094" d="M240,240 C300,240 240,240 300,240"/><path stroke="#dfdfdf" stroke-width="8" fill="none" id="10a34637ad661d98ba3344717656fcc76209c2f8-3e6c06b1a28a035e21aa0a736ef80afadc43122c" d="M120,60 C180,180 120,180 180,300"/><path stroke="#ffedbf" stroke-width="8" fill="none" id="3e6c06b1a28a035e21aa0a736ef80afadc43122c-63027d7630360e4203c0e3f970ec2ffcfe5f8f1b" d="M180,300 C240,300 180,300 240,300"/><circle stroke-linejoin="null" cy="60" cx="60" stroke-dasharray="null" stroke-width="0" r="12" stroke-linecap="null" id="commit-da39a3ee5e6b4b0d3255bfef95601890afd80709" stroke="#aaaaaa" fill="#808080"><title>da39a3 First commit</title></circle><circle stroke-linejoin="null" cy="60" cx="120" stroke-dasharray="null" stroke-width="0" r="12" stroke-linecap="null" id="commit-10a34637ad661d98ba3344717656fcc76209c2f8" stroke="#aaaaaa" fill="#808080"><title>10a346 Original branch point for feature</title></circle><circle stroke-linejoin="null" cy="60" cx="180" stroke-dasharray="null" stroke-width="0" r="12" stroke-linecap="null" id="commit-6110212c651287fa93aae5142e60b50edde00970" stroke="#aaaaaa" fill="#808080"><title>611021 Conflicting work on master</title></circle><circle stroke-linejoin="null" cy="60" cx="480" stroke-dasharray="null" stroke-width="0" r="12" stroke-linecap="null" id="commit-d6c6686a6dad872af5a056d85c03d0b11b430cc3" stroke="#aaaaaa" fill="#808080"><title>d6c668 Anna's and John's new feature</title></circle><circle stroke-linejoin="null" cy="120" cx="300" stroke-dasharray="null" stroke-width="0" r="12" stroke-linecap="null" id="commit-97ba1cea6b4f9b318de806114e76eb1b15305608" stroke="#aaaaaa" fill="#bfdeff"><title>97ba1c Groundwork</title></circle><circle stroke-linejoin="null" cy="120" cx="360" stroke-dasharray="null" stroke-width="0" r="12" stroke-linecap="null" id="commit-b7550c4170f74e8f673e146bd4e40856834e1b61" stroke="#aaaaaa" fill="#bfdeff"><title>b7550c Anna's part</title></circle><circle stroke-linejoin="null" cy="120" cx="420" stroke-dasharray="null" stroke-width="0" r="12" stroke-linecap="null" id="commit-0e87b424d10fbe54605d7b949ece42a447257046" stroke="#aaaaaa" fill="#bfdeff"><title>0e87b4 John's part</title></circle><circle stroke-linejoin="null" cy="180" cx="240" stroke-dasharray="null" stroke-width="0" r="12" stroke-linecap="null" id="commit-3c7435cfd4e31b9be3991041c9a4f8292b752e5b" stroke="#aaaaaa" fill="#bfdeff"><title>3c7435 Groundwork</title></circle><circle stroke-linejoin="null" cy="180" cx="300" stroke-dasharray="null" stroke-width="0" r="12" stroke-linecap="null" id="commit-ecc1978dca2e31d10751ede8d8753f1cbded832e" stroke="#aaaaaa" fill="#bfdeff"><title>ecc197 John's part</title></circle><circle stroke-linejoin="null" cy="240" cx="240" stroke-dasharray="null" stroke-width="0" r="12" stroke-linecap="null" id="commit-ee7fbf1c52742cf4f30d00b0e9e477dde72c7e51" stroke="#aaaaaa" fill="#ffedbf"><title>ee7fbf Groundwork</title></circle><circle stroke-linejoin="null" cy="240" cx="300" stroke-dasharray="null" stroke-width="0" r="12" stroke-linecap="null" id="commit-568e0c780c4424b9b3ed4d52d450384ab2dda094" stroke="#aaaaaa" fill="#ffedbf"><title>568e0c Anna's part</title></circle><circle stroke-linejoin="null" cy="300" cx="180" stroke-dasharray="null" stroke-width="0" r="12" stroke-linecap="null" id="commit-3e6c06b1a28a035e21aa0a736ef80afadc43122c" stroke="#aaaaaa" fill="#ffedbf"><title>3e6c06 Groundwork</title></circle><circle stroke-linejoin="null" cy="300" cx="240" stroke-dasharray="null" stroke-width="0" r="12" stroke-linecap="null" id="commit-63027d7630360e4203c0e3f970ec2ffcfe5f8f1b" stroke="#aaaaaa" fill="#ffedbf"><title>63027d Anna's part</title></circle></svg>