<svg style="vector-effect: non-scaling-stroke;" xmlns="http://www.w3.org/2000/svg" xmlns:svg="http://www.w3.org/2000/svg" height="180" width="480" stroke="null"><path stroke="#808080" stroke-width="8" fill="none" id="da39a3ee5e6b4b0d3255bfef95601890afd80709-10a34637ad661d98ba3344717656fcc76209c2f8" d="M60,60 C120,60 60,60 120,60"/><path stroke="#808080" stroke-width="8" fill="none" id="10a34637ad661d98ba3344717656fcc76209c2f8-3c7435cfd4e31b9be3991041c9a4f8292b752e5b" d="M120,60 C180,60 120,60 180,60"/><path stroke="#808080" stroke-width="8" fill="none" id="3c7435cfd4e31b9be3991041c9a4f8292b752e5b-ee7fbf1c52742cf4f30d00b0e9e477dde72c7e51" d="M180,60 C360,60 180,60 360,60"/><path stroke="#808080" stroke-width="8" fill="none" id="10a34637ad661d98ba3344717656fcc76209c2f8-3e6c06b1a28a035e21aa0a736ef80afadc43122c" d="M120,60 C180,90 120,90 180,120"/><path stroke="#007fff" stroke-width="8" fill="none" id="3e6c06b1a28a035e21aa0a736ef80afadc43122c-63027d7630360e4203c0e3f970ec2ffcfe5f8f1b" d="M180,120 C240,120 180,120 240,120"/><path stroke="#808080" stroke-width="8" fill="none" id="3c7435cfd4e31b9be3991041c9a4f8292b752e5b-63027d7630360e4203c0e3f970ec2ffcfe5f8f1b" d="M180,60 C240,90 180,90 240,120"/><path stroke="#007fff" stroke-width="8" fill="none" id="63027d7630360e4203c0e3f970ec2ffcfe5f8f1b-ecc1978dca2e31d10751ede8d8753f1cbded832e" d="M240,120 C300,120 240,120 300,120"/><path stroke="#007fff" stroke-width="8" fill="none" id="ecc1978dca2e31d10751ede8d8753f1cbded832e-6110212c651287fa93aae5142e60b50edde00970" d="M300,120 C360,120 300,120 360,120"/><path stroke="#007fff" stroke-width="8" fill="none" id="6110212c651287fa93aae5142e60b50edde00970-568e0c780c4424b9b3ed4d52d450384ab2dda094" d="M360,120 C420,120 360,120 420,120"/><path stroke="#808080" stroke-width="8" fill="none" id="ee7fbf1c52742cf4f30d00b0e9e477dde72c7e51-568e0c780c4424b9b3ed4d52d450384ab2dda094" d="M360,60 C420,90 360,90 420,120"/><circle stroke-linejoin="null" cy="60" cx="60" stroke-dasharray="null" stroke-width="0" r="12" stroke-linecap="null" id="commit-da39a3ee5e6b4b0d3255bfef95601890afd80709" stroke="#aaaaaa" fill="#808080"><title>da39a3 First commit</title></circle><circle stroke-linejoin="null" cy="60" cx="120" stroke-dasharray="null" stroke-width="0" r="12" stroke-linecap="null" id="commit-10a34637ad661d98ba3344717656fcc76209c2f8" stroke="#aaaaaa" fill="#808080"><title>10a346 Original branch point for feature</title></circle><circle stroke-linejoin="null" cy="60" cx="180" stroke-dasharray="null" stroke-width="0" r="12" stroke-linecap="null" id="commit-3c7435cfd4e31b9be3991041c9a4f8292b752e5b" stroke="#aaaaaa" fill="#808080"><title>3c7435 Anna's conflicting feature</title></circle><circle stroke-linejoin="null" cy="60" cx="360" stroke-dasharray="null" stroke-width="0" r="12" stroke-linecap="null" id="commit-ee7fbf1c52742cf4f30d00b0e9e477dde72c7e51" stroke="#aaaaaa" fill="#808080"><title>ee7fbf Anna's second conflicting feature</title></circle><circle stroke-linejoin="null" cy="120" cx="180" stroke-dasharray="null" stroke-width="0" r="12" stroke-linecap="null" id="commit-3e6c06b1a28a035e21aa0a736ef80afadc43122c" stroke="#aaaaaa" fill="#007fff"><title>3e6c06 John's first change</title></circle><circle stroke-linejoin="null" cy="120" cx="240" stroke-dasharray="null" stroke-width="0" r="12" stroke-linecap="null" id="commit-63027d7630360e4203c0e3f970ec2ffcfe5f8f1b" stroke="#aaaaaa" fill="#007fff"><title>63027d Merging ['master'] into development</title></circle><circle stroke-linejoin="null" cy="120" cx="300" stroke-dasharray="null" stroke-width="0" r="12" stroke-linecap="null" id="commit-ecc1978dca2e31d10751ede8d8753f1cbded832e" stroke="#aaaaaa" fill="#007fff"><title>ecc197 John's second change</title></circle><circle stroke-linejoin="null" cy="120" cx="360" stroke-dasharray="null" stroke-width="0" r="12" stroke-linecap="null" id="commit-6110212c651287fa93aae5142e60b50edde00970" stroke="#aaaaaa" fill="#007fff"><title>611021 John's fixup to his first change</title></circle><circle stroke-linejoin="null" cy="120" cx="420" stroke-dasharray="null" stroke-width="0" r="12" stroke-linecap="null" id="commit-568e0c780c4424b9b3ed4d52d450384ab2dda094" stroke="#aaaaaa" fill="#007fff"><title>568e0c Merging ['master'] into development</title></circle></svg>